<?xml version="1.0" encoding="utf-8"?>
<!-- Generator: Adobe Illustrator 23.0.4, SVG Export Plug-In . SVG Version: 6.00 Build 0)  -->
<svg version="1.1" id="Layer_1" xmlns="http://www.w3.org/2000/svg" xmlns:xlink="http://www.w3.org/1999/xlink" x="0px" y="0px"
	 viewBox="0 0 102.5 102.5" style="enable-background:new 0 0 102.5 102.5;" xml:space="preserve">
<style type="text/css">
	.st0{fill:#EEB173;}
</style>
<g>
	<path class="st0" d="M49.4,82c-1.5,0.6-2.9,1.3-4.1,1.9c-1.1,0.6-2.2,1.2-3.3,1.9s-2,1.5-2.7,2.3c-0.6,0.8-0.9,1.5-0.9,2.1
		c0,0.6,0.2,1.2,0.6,1.8s0.9,1.1,1.5,1.6c0.6,0.5,1.2,1,1.8,1.5c0.6,0.5,0.8,1.3,0.4,2.3c-0.3,1-0.9,1.9-1.8,2.7
		c-0.9,0.8-1.9,1.4-3.1,1.8c-1.2,0.4-2.4,0.1-3.6-0.6c-1.2-0.7-2.5-1.7-3.8-3c-1.3-1.3-2.4-2.8-3.4-4.4c-1-1.6-1.6-3.2-1.9-4.8
		c-0.3-1.6-0.1-3.1,0.6-4.5c0.7-1.4,1.6-2.8,2.5-4.2c0.9-1.5,1.8-2.8,2.7-4c1-1.4,2-2.8,2.9-4.2c1,0.3,2.1,0.6,3.2,1
		c0.9,0.3,1.9,0.7,3,1.2s2.1,1,3,1.6c1,0.6,1.9,1.3,2.6,2c0.8,0.7,1.4,1.4,2,1.9C48.3,80.6,48.9,81.2,49.4,82L49.4,82z M68.7,72.1
		c1.1,1.4,2.2,2.7,3.3,4.2c0.9,1.2,1.9,2.5,2.9,4c1,1.5,1.8,2.9,2.6,4.2s0.9,2.8,0.6,4.5c-0.3,1.6-1,3.2-1.9,4.8
		c-1,1.6-2.1,3-3.4,4.4c-1.3,1.3-2.5,2.3-3.7,3c-1.2,0.8-2.5,1-3.7,0.6s-2.3-0.9-3.1-1.8c-0.9-0.8-1.5-1.7-1.8-2.7s-0.2-1.7,0.4-2.3
		s1.2-1,1.8-1.5c0.6-0.5,1.1-1,1.5-1.6c0.4-0.6,0.6-1.1,0.6-1.8c0-0.6-0.3-1.3-0.9-2.1c-0.7-0.8-1.6-1.6-2.7-2.3
		c-1.1-0.7-2.3-1.4-3.4-1.9c-1.3-0.6-2.6-1.3-4.1-1.9c0.6-0.7,1.2-1.4,1.8-2c0.6-0.6,1.3-1.2,2.1-1.9c0.8-0.7,1.7-1.3,2.7-2
		c0.9-0.6,1.8-1.1,2.7-1.6c1-0.5,1.9-0.9,2.7-1.2C66.8,72.8,67.8,72.4,68.7,72.1L68.7,72.1z M85.8,50.6c1.4,1.1,2.1,2.2,2.3,3.3
		c0.2,1.1,0,2.1-0.6,3s-1.4,1.5-2.5,1.9c-1.1,0.4-2.3,0.4-3.5,0.1c-1.2-0.4-2.5-0.9-3.9-1.5s-2.6-1.1-3.9-1.7
		c-1.4-0.6-2.8-1.3-4.1-2l-0.8,12.8c-1.3,0.2-2.7,0.4-4.3,0.5c-1.4,0.1-3.1,0.2-5.1,0.4c-2,0.1-4.3,0.2-6.9,0.2
		c-2.6,0-5-0.1-7.2-0.2c-2.2-0.1-4.1-0.2-5.8-0.4c-2-0.2-3.7-0.4-5.3-0.5V52.9c-1.5,0.2-3,0.4-4.6,0.8c-1.4,0.3-3,0.7-4.8,1.2
		c-1.8,0.5-3.6,1.1-5.3,1.9c-1.8,0.8-3.4,0.8-4.7,0.2s-2.3-1.5-2.8-2.8c-0.6-1.2-0.7-2.5-0.3-3.9c0.3-1.4,1.2-2.4,2.7-3.1
		c1-0.5,2.2-1,3.5-1.7c1.3-0.7,2.5-1.4,3.8-2.1c1.3-0.7,2.5-1.5,3.7-2.2c1.2-0.7,2.2-1.4,3.1-1.9c2.6,3.4,5.8,6.1,9.8,8.1
		s8.3,3,13,3c4.5,0,8.7-0.9,12.5-2.7c3.8-1.8,7-4.3,9.7-7.5c0.4,0.4,1.1,0.9,2,1.7c0.9,0.8,2,1.7,3.1,2.7s2.4,2,3.6,3.1
		C83.4,48.6,84.7,49.6,85.8,50.6L85.8,50.6z M51.7,44.8c-3.2,0-6.2-0.6-9-1.7c-2.8-1.1-5.3-2.7-7.4-4.7c-2.1-2-3.7-4.4-4.9-7.1
		c-1.2-2.7-1.8-5.6-1.8-8.7s0.6-5.9,1.8-8.7c1.2-2.7,2.8-5.1,4.9-7.1c2.1-2,4.5-3.6,7.4-4.7c2.8-1.1,5.8-1.7,9-1.7
		c3.2,0,6.2,0.6,9,1.7c2.8,1.1,5.3,2.7,7.4,4.7c2.1,2,3.7,4.4,4.9,7.1c1.2,2.7,1.8,5.6,1.8,8.7s-0.6,5.9-1.8,8.7
		c-1.2,2.7-2.8,5.1-4.9,7.1c-2.1,2-4.5,3.6-7.4,4.7C57.9,44.2,54.9,44.8,51.7,44.8L51.7,44.8z"/>
</g>
</svg>
